<svg width="204" height="46" viewBox="0 0 204 46" fill="none" xmlns="http://www.w3.org/2000/svg">
<path fill-rule="evenodd" clip-rule="evenodd" d="M31.9343 15.5272H26.1562V12.5439H41.3357V15.5272H35.5576V30.5406H31.9343V15.5272Z" fill="#5F2A60"/>
<path fill-rule="evenodd" clip-rule="evenodd" d="M40.9062 18.488H44.0802L44.1032 20.4772C44.4348 19.7665 44.8808 19.2223 45.4412 18.8431C46.0016 18.4644 46.6529 18.2754 47.3951 18.2754C47.8999 18.2754 48.3655 18.3612 48.7924 18.5351L48.508 21.6373C48.0183 21.4483 47.5286 21.3529 47.0394 21.3529C46.1402 21.3529 45.4412 21.6771 44.9442 22.324C44.4466 22.9713 44.1981 23.879 44.1981 25.0469V30.5411H40.9062V18.488Z" fill="#5F2A60"/>
<path fill-rule="evenodd" clip-rule="evenodd" d="M55.8978 27.9833C56.8291 27.9833 57.5953 27.6596 58.195 27.0122C58.7947 26.3648 59.0948 25.529 59.0948 24.5024C59.0948 23.4921 58.7986 22.6635 58.2068 22.0162C57.615 21.3688 56.8448 21.0451 55.8978 21.0451C54.9509 21.0451 54.1813 21.3688 53.59 22.0162C52.997 22.6635 52.7008 23.4921 52.7008 24.5024C52.7008 25.529 53.001 26.3648 53.6006 27.0122C54.2009 27.6596 54.9666 27.9833 55.8978 27.9833ZM54.998 30.9194C53.94 30.9194 52.9892 30.6597 52.1449 30.138C51.3006 29.6174 50.6325 28.8713 50.1439 27.9002C49.6547 26.9292 49.4102 25.8128 49.4102 24.5495C49.4102 23.3816 49.6508 22.3124 50.1316 21.3413C50.614 20.3703 51.2956 19.5883 52.1808 18.9964C53.0643 18.4046 54.059 18.1084 55.1641 18.1084C55.9848 18.1084 56.7303 18.2789 57.4024 18.6178C58.0722 18.9577 58.6057 19.4351 59.0006 20.0505L59.0472 18.4876H62.197V30.5407H59.0472L59.0006 29.0014C58.5888 29.6331 58.0447 30.111 57.3665 30.4342C56.6877 30.7573 55.8978 30.9194 54.998 30.9194Z" fill="#5F2A60"/>
<path fill-rule="evenodd" clip-rule="evenodd" d="M64.9414 18.4876H68.1154L68.1384 19.9793C68.4856 19.379 68.9715 18.9179 69.5947 18.5942C70.2185 18.2705 70.9483 18.1084 71.7853 18.1084C73.2063 18.1084 74.2912 18.5465 75.0412 19.4228C75.7907 20.299 76.166 21.5657 76.166 23.2234V30.5407H72.8747V23.8393C72.8747 21.9606 72.1561 21.0215 70.7195 21.0215C69.9296 21.0215 69.3187 21.2858 68.8845 21.8142C68.4497 22.3438 68.2332 23.0899 68.2332 24.0519V30.5407H64.9414V18.4876Z" fill="#5F2A60"/>
<path fill-rule="evenodd" clip-rule="evenodd" d="M84.6439 27.9833C85.5752 27.9833 86.3414 27.6596 86.9411 27.0122C87.5408 26.3648 87.8409 25.529 87.8409 24.5024C87.8409 23.4921 87.5447 22.6635 86.9529 22.0162C86.3611 21.3688 85.5909 21.0451 84.6439 21.0451C83.697 21.0451 82.9273 21.3688 82.3355 22.0162C81.7431 22.6635 81.4469 23.4921 81.4469 24.5024C81.4469 25.529 81.7471 26.3648 82.3467 27.0122C82.9464 27.6596 83.7127 27.9833 84.6439 27.9833ZM87.6519 34.5046V29.1192C86.8143 30.3203 85.5118 30.9194 83.7441 30.9194C82.6861 30.9194 81.7353 30.6597 80.891 30.138C80.0467 29.6174 79.3786 28.8713 78.8894 27.9002C78.4008 26.9292 78.1562 25.8128 78.1562 24.5495C78.1562 23.3816 78.3969 22.3123 78.8777 21.3413C79.3595 20.3703 80.0417 19.5883 80.9263 18.9964C81.8104 18.4046 82.8051 18.1084 83.9102 18.1084C84.7309 18.1084 85.4764 18.2789 86.1485 18.6178C86.8183 18.9577 87.3518 19.4351 87.7467 20.0505L87.7932 18.4876H90.9426V34.5046H87.6519Z" fill="#5F2A60"/>
<path fill-rule="evenodd" clip-rule="evenodd" d="M99.1854 30.9201C97.3858 30.9201 96.008 30.455 95.0533 29.5227C94.0979 28.5915 93.6211 27.2653 93.6211 25.5448V18.4883H96.9118V25.4735C96.9118 27.1632 97.6775 28.0075 99.209 28.0075C100.693 28.0075 101.435 27.1632 101.435 25.4735V18.4883H104.727V25.5448C104.727 27.2816 104.249 28.6111 103.294 29.5345C102.339 30.4578 100.969 30.9201 99.1854 30.9201Z" fill="#5F2A60"/>
<path fill-rule="evenodd" clip-rule="evenodd" d="M107.401 30.5411H110.693V18.488H107.401V30.5411ZM109.035 16.0253C108.467 16.0253 107.997 15.8396 107.627 15.4682C107.255 15.098 107.07 14.6442 107.07 14.1073C107.07 13.5705 107.255 13.1205 107.627 12.7576C107.997 12.3941 108.467 12.2129 109.035 12.2129C109.604 12.2129 110.074 12.3941 110.445 12.7576C110.815 13.1205 111.001 13.5705 111.001 14.1073C111.001 14.6599 110.815 15.1176 110.445 15.48C110.074 15.8441 109.604 16.0253 109.035 16.0253Z" fill="#5F2A60"/>
<path fill-rule="evenodd" clip-rule="evenodd" d="M113.438 30.5412H116.729V11.3604H113.438V30.5412Z" fill="#5F2A60"/>
<path fill-rule="evenodd" clip-rule="evenodd" d="M119.476 30.5411H122.767V18.488H119.476V30.5411ZM121.11 16.0253C120.541 16.0253 120.071 15.8396 119.701 15.4682C119.33 15.098 119.145 14.6442 119.145 14.1073C119.145 13.5705 119.33 13.1205 119.701 12.7576C120.071 12.3941 120.541 12.2129 121.11 12.2129C121.678 12.2129 122.147 12.3941 122.518 12.7576C122.889 13.1205 123.075 13.5705 123.075 14.1073C123.075 14.6599 122.889 15.1176 122.518 15.48C122.147 15.8441 121.678 16.0253 121.11 16.0253Z" fill="#5F2A60"/>
<path fill-rule="evenodd" clip-rule="evenodd" d="M126.626 21.2104H124.281V18.4874H126.626V15.2197H129.917V18.4874H132.783V21.2104H129.917V30.5405H126.626V21.2104Z" fill="#5F2A60"/>
<path fill-rule="evenodd" clip-rule="evenodd" d="M138.633 29.7119L133.613 18.4873H137.189L140.315 26.231L143.297 18.4873H146.826L139.688 34.5054H136.278L138.633 29.7119Z" fill="#5F2A60"/>
<path fill-rule="evenodd" clip-rule="evenodd" d="M154.277 27.7232H157.711C158.674 27.7232 159.415 27.4988 159.937 27.0484C160.458 26.5985 160.718 25.9635 160.718 25.1422C160.718 23.5002 159.653 22.6795 157.521 22.6795H154.277V27.7232ZM154.277 19.9083H157.024C158.003 19.9083 158.737 19.7192 159.226 19.3406C159.716 18.9614 159.961 18.3779 159.961 17.5887C159.961 16.8622 159.72 16.3096 159.239 15.931C158.756 15.5518 158.034 15.3627 157.072 15.3627H154.277V19.9083ZM150.844 12.5449H157.545C159.44 12.5449 160.896 12.9438 161.913 13.7404C162.932 14.5375 163.442 15.6707 163.442 17.1382C163.442 17.9595 163.24 18.71 162.839 19.3877C162.435 20.067 161.886 20.5876 161.192 20.9506C162.17 21.2198 162.944 21.7483 163.512 22.537C164.082 23.3269 164.365 24.2581 164.365 25.3312C164.365 27.0209 163.816 28.3111 162.72 29.2031C161.622 30.0956 160.039 30.541 157.972 30.541H150.844V12.5449Z" fill="#5F2A60"/>
<path fill-rule="evenodd" clip-rule="evenodd" d="M172.417 27.9833C173.349 27.9833 174.115 27.6596 174.715 27.0122C175.314 26.3648 175.614 25.529 175.614 24.5024C175.614 23.4921 175.318 22.6635 174.726 22.0162C174.135 21.3688 173.364 21.0451 172.417 21.0451C171.47 21.0451 170.701 21.3688 170.11 22.0162C169.517 22.6635 169.221 23.4921 169.221 24.5024C169.221 25.529 169.52 26.3648 170.12 27.0122C170.72 27.6596 171.486 27.9833 172.417 27.9833ZM171.518 30.9194C170.46 30.9194 169.509 30.6597 168.664 30.138C167.82 29.6174 167.152 28.8713 166.663 27.9002C166.174 26.9292 165.93 25.8128 165.93 24.5495C165.93 23.3816 166.17 22.3124 166.652 21.3413C167.133 20.3703 167.815 19.5883 168.7 18.9964C169.584 18.4046 170.578 18.1084 171.684 18.1084C172.504 18.1084 173.25 18.2789 173.922 18.6178C174.592 18.9577 175.125 19.4351 175.52 20.0505L175.567 18.4876H178.717V30.5407H175.567L175.52 29.0014C175.109 29.6331 174.564 30.111 173.886 30.4342C173.207 30.7573 172.417 30.9194 171.518 30.9194Z" fill="#5F2A60"/>
<path fill-rule="evenodd" clip-rule="evenodd" d="M185.183 30.9194C184.268 30.9194 183.399 30.8128 182.578 30.5996C181.757 30.3859 181.126 30.1071 180.684 29.7587L181.086 27.0834C181.623 27.4464 182.25 27.7387 182.969 27.9591C183.687 28.1807 184.377 28.2907 185.041 28.2907C186.383 28.2907 187.053 27.9513 187.053 27.2725C187.053 26.9101 186.911 26.633 186.627 26.4439C186.343 26.2543 185.751 26.0333 184.852 25.7809C183.43 25.3871 182.416 24.885 181.808 24.2774C181.2 23.6699 180.896 22.8526 180.896 21.826C180.896 20.6737 181.331 19.7661 182.199 19.103C183.067 18.4399 184.26 18.1084 185.775 18.1084C186.517 18.1084 187.258 18.1954 188 18.3687C188.743 18.5432 189.351 18.7715 189.824 19.0559L189.445 21.6605C188.956 21.3766 188.392 21.1517 187.752 20.9856C187.113 20.8202 186.501 20.7371 185.917 20.7371C184.765 20.7371 184.189 21.0445 184.189 21.6605C184.189 22.0077 184.326 22.2804 184.603 22.4773C184.879 22.6753 185.428 22.8918 186.248 23.1286C187.764 23.5706 188.833 24.0918 189.457 24.6909C190.08 25.2917 190.392 26.1203 190.392 27.1783C190.392 28.3462 189.931 29.2617 189.007 29.9248C188.084 30.5879 186.808 30.9194 185.183 30.9194Z" fill="#5F2A60"/>
<path fill-rule="evenodd" clip-rule="evenodd" d="M200.433 23.2234C200.353 22.387 200.081 21.7435 199.616 21.2936C199.15 20.8432 198.53 20.6182 197.757 20.6182C196.999 20.6182 196.376 20.8432 195.886 21.2936C195.397 21.7435 195.081 22.387 194.939 23.2234H200.433ZM198.705 30.9194C197.299 30.9194 196.072 30.6664 195.021 30.1615C193.972 29.6566 193.155 28.9184 192.571 27.9474C191.987 26.9763 191.695 25.8364 191.695 24.526C191.695 23.3103 191.948 22.217 192.452 21.2459C192.958 20.2754 193.676 19.5097 194.607 18.9487C195.538 18.3894 196.62 18.1084 197.851 18.1084C198.989 18.1084 199.987 18.3491 200.847 18.8309C201.707 19.3128 202.379 20.0028 202.86 20.9026C203.342 21.8024 203.582 22.8683 203.582 24.0996C203.582 24.6208 203.543 25.0942 203.464 25.5206H194.962C195.373 27.3202 196.739 28.22 199.059 28.22C199.786 28.22 200.492 28.1454 201.179 27.995C201.866 27.8453 202.485 27.6282 203.038 27.3437L203.369 29.9248C202.801 30.2406 202.106 30.4852 201.286 30.6591C200.464 30.8324 199.604 30.9194 198.705 30.9194Z" fill="#5F2A60"/>
<path fill-rule="evenodd" clip-rule="evenodd" d="M18.0931 28.9405C18.6087 27.6171 19.4344 24.2681 19.4434 24.2154C20.4554 25.7519 20.9979 27.5548 20.9979 29.4464C20.9979 30.8416 20.6955 32.1913 20.1362 33.426C19.8961 31.7655 19.1943 30.2195 18.0931 28.9405ZM16.077 28.9758H6.76873C4.15683 22.8477 4.18376 15.9993 6.555 9.98565H16.2902C18.6614 15.9993 18.6883 22.8477 16.077 28.9758ZM2.71793 33.426C2.14966 32.1913 1.85627 30.8416 1.85627 29.4464C1.85627 27.5638 2.39817 25.7608 3.41073 24.2154C3.41971 24.286 4.38795 27.9902 4.76044 28.9405C3.65027 30.2195 2.94849 31.7655 2.71793 33.426ZM11.4226 2.24923C13.0747 4.02584 14.4249 6.0246 15.4728 8.14733H7.38132C8.42024 6.01562 9.77051 4.02584 11.4226 2.24923ZM19.7985 21.6747C20.5003 13.894 17.7824 5.96233 12.08 0.260012C11.7334 -0.0866707 11.1208 -0.0866707 10.7741 0.260012C5.07178 5.96233 2.35385 13.885 3.05563 21.6747C1.0838 23.798 0 26.5333 0 29.4464C0 32.3865 1.11915 35.1841 3.15324 37.3164C3.65027 37.8409 4.92088 37.6008 4.71668 36.4457C4.6101 35.8421 4.47659 35.2554 4.47659 34.6787C4.47659 33.2398 4.91134 31.8715 5.72027 30.7171C5.85322 30.7877 6.00412 30.8326 6.164 30.8326H16.6896C16.85 30.8326 17.0009 30.7877 17.1339 30.7171C17.9422 31.8715 18.3776 33.2398 18.3776 34.6787C18.3776 35.2554 18.2261 35.8332 18.1375 36.4457C17.9512 37.7253 19.2835 37.7696 19.7009 37.3164C21.726 35.1763 22.8541 32.3865 22.8541 29.4464C22.8452 26.5333 21.7703 23.789 19.7985 21.6747Z" fill="#F1644B"/>
<path fill-rule="evenodd" clip-rule="evenodd" d="M7.68174 32.3779C7.16676 32.3779 6.75781 32.7953 6.75781 33.3019V37.9473C6.75781 38.4628 7.17574 38.8712 7.68174 38.8712C8.1883 38.8712 8.60567 38.4533 8.60567 37.9473V33.3019C8.60567 32.7869 8.1883 32.3779 7.68174 32.3779Z" fill="#5F2A60"/>
<path fill-rule="evenodd" clip-rule="evenodd" d="M11.4212 32.3779C11.1637 32.3779 10.9326 32.484 10.7643 32.6534L10.7553 32.6623C10.6487 32.7689 10.5685 32.9109 10.5242 33.0707C10.5068 33.1504 10.4883 33.2312 10.4883 33.3198V42.6017C10.4883 42.673 10.4973 42.7442 10.5152 42.8143C10.6134 43.2233 10.9769 43.5251 11.4122 43.5251C11.8475 43.5251 12.2116 43.2233 12.3092 42.8143C12.3272 42.7442 12.3361 42.673 12.3361 42.6017V33.3019C12.3361 33.2132 12.3272 33.1336 12.3008 33.0528C12.2032 32.6623 11.8475 32.3779 11.4212 32.3779Z" fill="#5F2A60"/>
<path fill-rule="evenodd" clip-rule="evenodd" d="M15.1622 32.3779C14.6472 32.3779 14.2383 32.7953 14.2383 33.3019V37.9473C14.2383 38.4628 14.6562 38.8712 15.1622 38.8712C15.6688 38.8712 16.0856 38.4533 16.0856 37.9473V33.3019C16.0951 32.7869 15.6772 32.3779 15.1622 32.3779Z" fill="#5F2A60"/>
<path fill-rule="evenodd" clip-rule="evenodd" d="M32.5339 38.0124H30.4219V37.1289H35.6979V38.0124H33.5858V43.524H32.5339V38.0124Z" fill="#F1644B"/>
<path fill-rule="evenodd" clip-rule="evenodd" d="M36.6758 36.708H37.6435V39.7709C37.7669 39.5695 37.9391 39.4136 38.1607 39.3042C38.3823 39.1948 38.6392 39.1398 38.9309 39.1398C39.4414 39.1398 39.8324 39.2958 40.105 39.6071C40.3771 39.9185 40.5129 40.3661 40.5129 40.9495V43.5239H39.5452V41.1257C39.5452 40.7442 39.4739 40.4609 39.3303 40.2758C39.1878 40.0907 38.9674 39.9981 38.67 39.9981C38.3447 39.9981 38.0922 40.1053 37.9127 40.3184C37.7332 40.5311 37.6435 40.8289 37.6435 41.2098V43.5239H36.6758V36.708Z" fill="#F1644B"/>
<path fill-rule="evenodd" clip-rule="evenodd" d="M44.7673 40.9914C44.7448 40.6436 44.6411 40.3738 44.4559 40.1836C44.2708 39.9929 44.0156 39.8975 43.6902 39.8975C43.3704 39.8975 43.1096 39.9929 42.9076 40.1836C42.7057 40.3738 42.5823 40.6436 42.5374 40.9914H44.7673ZM44.0015 43.6589C43.5191 43.6589 43.0956 43.5702 42.7309 43.3935C42.3663 43.2168 42.083 42.9576 41.8811 42.6155C41.6791 42.2733 41.5781 41.8716 41.5781 41.4122C41.5781 40.9796 41.6668 40.5931 41.8435 40.2509C42.0202 39.9082 42.2709 39.6378 42.5963 39.4386C42.9217 39.2395 43.2975 39.1396 43.7239 39.1396C44.1109 39.1396 44.4542 39.2244 44.7549 39.3921C45.0545 39.5604 45.289 39.805 45.4573 40.1247C45.6256 40.4439 45.7097 40.817 45.7097 41.2433C45.7097 41.457 45.6985 41.6169 45.6761 41.7235H42.5458C42.6075 42.0881 42.7713 42.3697 43.0378 42.5695C43.3048 42.768 43.6537 42.8679 44.0857 42.8679C44.5906 42.8679 45.0674 42.7579 45.5162 42.5397L45.6172 43.2965C45.4096 43.4092 45.1628 43.4979 44.8767 43.5618C44.5906 43.6263 44.2989 43.6589 44.0015 43.6589Z" fill="#F1644B"/>
<path fill-rule="evenodd" clip-rule="evenodd" d="M50.784 43.6342C50.324 43.6342 49.9184 43.5455 49.5683 43.3688C49.2177 43.1921 48.944 42.9369 48.7476 42.6031C48.5513 42.2693 48.4531 41.875 48.4531 41.4211C48.4531 40.9892 48.5485 40.6038 48.7392 40.2638C48.93 39.925 49.2003 39.6569 49.551 39.4605C49.9016 39.2642 50.31 39.166 50.7756 39.166C51.0112 39.166 51.2451 39.1941 51.4779 39.2502C51.7107 39.3063 51.9172 39.382 52.0967 39.4774L51.9704 40.302C51.8078 40.2117 51.6254 40.1432 51.4235 40.0956C51.2215 40.0479 51.0252 40.0237 50.8345 40.0237C50.4081 40.0237 50.0671 40.1488 49.8124 40.3985C49.5566 40.6487 49.4292 40.9808 49.4292 41.3959C49.4292 41.8278 49.5582 42.1655 49.8163 42.4096C50.0743 42.6536 50.4278 42.7759 50.8765 42.7759C51.2356 42.7759 51.6283 42.6861 52.0546 42.5061L52.164 43.306C51.9845 43.407 51.7741 43.4866 51.5329 43.5455C51.2917 43.6045 51.0415 43.6342 50.784 43.6342Z" fill="#F1644B"/>
<path fill-rule="evenodd" clip-rule="evenodd" d="M53.2656 43.5239H54.2333V36.708H53.2656V43.5239Z" fill="#F1644B"/>
<path fill-rule="evenodd" clip-rule="evenodd" d="M57.5917 42.7922C57.9731 42.7922 58.2828 42.662 58.5218 42.4006C58.7602 42.1397 58.8791 41.8048 58.8791 41.3953C58.8791 40.9858 58.7585 40.652 58.5173 40.394C58.2761 40.1359 57.9675 40.0069 57.5917 40.0069C57.2158 40.0069 56.9073 40.1359 56.6661 40.394C56.4248 40.652 56.3042 40.9858 56.3042 41.3953C56.3042 41.8048 56.4232 42.1397 56.6616 42.4006C56.9005 42.662 57.2102 42.7922 57.5917 42.7922ZM57.5917 43.6589C57.1765 43.6589 56.7979 43.5646 56.4557 43.3767C56.1135 43.1888 55.8397 42.9206 55.6355 42.5728C55.4302 42.2256 55.3281 41.8329 55.3281 41.3953C55.3281 40.9914 55.4235 40.6184 55.6142 40.2762C55.805 39.934 56.0742 39.6591 56.422 39.4516C56.7698 39.244 57.1597 39.1396 57.5917 39.1396C58.0068 39.1396 58.3854 39.2339 58.7276 39.4218C59.0698 39.6097 59.3436 39.8762 59.5478 40.2212C59.7531 40.5662 59.8552 40.9572 59.8552 41.3953C59.8552 41.8048 59.7598 42.1807 59.5691 42.5229C59.3784 42.8651 59.1091 43.14 58.7613 43.347C58.4135 43.5545 58.0236 43.6589 57.5917 43.6589Z" fill="#F1644B"/>
<path fill-rule="evenodd" clip-rule="evenodd" d="M62.8275 43.6594C62.2216 43.6594 61.7532 43.4995 61.4222 43.1798C61.0913 42.86 60.9258 42.4084 60.9258 41.8245V39.2754H61.8935V41.8082C61.8935 42.4701 62.2076 42.8011 62.8359 42.8011C63.453 42.8011 63.7615 42.4701 63.7615 41.8082V39.2754H64.7292V41.8245C64.7292 42.4084 64.5654 42.86 64.2366 43.1798C63.9085 43.4995 63.4389 43.6594 62.8275 43.6594Z" fill="#F1644B"/>
<path fill-rule="evenodd" clip-rule="evenodd" d="M68.0604 42.7923C68.4419 42.7923 68.7515 42.6622 68.9905 42.4008C69.2289 42.1399 69.3479 41.805 69.3479 41.3955C69.3479 40.986 69.2272 40.6522 68.986 40.3942C68.7448 40.1361 68.4363 40.0071 68.0604 40.0071C67.6846 40.0071 67.376 40.1361 67.1348 40.3942C66.8936 40.6522 66.773 40.986 66.773 41.3955C66.773 41.805 66.8919 42.1399 67.1303 42.4008C67.3693 42.6622 67.679 42.7923 68.0604 42.7923ZM67.8164 43.6591C67.4349 43.6591 67.091 43.5665 66.7859 43.3814C66.4796 43.1963 66.2384 42.9326 66.0617 42.5904C65.8855 42.2482 65.7969 41.8527 65.7969 41.4034C65.7969 41 65.8838 40.627 66.0577 40.2842C66.2316 39.9426 66.4768 39.666 66.7943 39.4557C67.1107 39.2453 67.4658 39.1398 67.8585 39.1398C68.167 39.1398 68.4458 39.201 68.6954 39.3216C68.9451 39.4416 69.1431 39.6144 69.289 39.8382V36.708H70.2566V43.5244H69.3226L69.3058 42.9438C68.9972 43.4206 68.5008 43.6591 67.8164 43.6591Z" fill="#F1644B"/>
<path fill-rule="evenodd" clip-rule="evenodd" d="M73.4688 43.5239H74.4364V36.708H73.4688V43.5239Z" fill="#F1644B"/>
<path fill-rule="evenodd" clip-rule="evenodd" d="M77.7948 42.7922C78.1763 42.7922 78.4859 42.662 78.7249 42.4006C78.9633 42.1397 79.0822 41.8048 79.0822 41.3953C79.0822 40.9858 78.9616 40.652 78.7204 40.394C78.4792 40.1359 78.1706 40.0069 77.7948 40.0069C77.4189 40.0069 77.1104 40.1359 76.8692 40.394C76.628 40.652 76.5074 40.9858 76.5074 41.3953C76.5074 41.8048 76.6263 42.1397 76.8647 42.4006C77.1037 42.662 77.4133 42.7922 77.7948 42.7922ZM77.5508 43.6589C77.1693 43.6589 76.8254 43.5663 76.5203 43.3812C76.214 43.1961 75.9727 42.9324 75.796 42.5902C75.6199 42.248 75.5312 41.8525 75.5312 41.4032C75.5312 40.9998 75.6182 40.6268 75.7921 40.284C75.966 39.9424 76.2112 39.6658 76.5287 39.4555C76.8451 39.2451 77.2002 39.1396 77.5928 39.1396C77.907 39.1396 78.1903 39.2036 78.4427 39.3293C78.6952 39.4555 78.8943 39.6339 79.0402 39.8633L79.057 39.2743H79.991V43.5242H79.057L79.0402 42.9436C78.7316 43.4205 78.2352 43.6589 77.5508 43.6589Z" fill="#F1644B"/>
<path fill-rule="evenodd" clip-rule="evenodd" d="M81.3555 39.2753H82.2811L82.2895 39.8228C82.4073 39.6034 82.5812 39.4351 82.8112 39.3173C83.0412 39.1995 83.3077 39.1406 83.6106 39.1406C84.1211 39.1406 84.5121 39.2966 84.7847 39.6079C85.0568 39.9187 85.1925 40.3664 85.1925 40.9498V43.5247H84.2249V41.1265C84.2249 40.745 84.1536 40.4617 84.01 40.2766C83.8675 40.0915 83.6471 39.9989 83.3497 39.9989C83.0244 39.9989 82.7719 40.1055 82.5924 40.3187C82.4129 40.5318 82.3232 40.8297 82.3232 41.2106V43.5247H81.3555V39.2753Z" fill="#F1644B"/>
<path fill-rule="evenodd" clip-rule="evenodd" d="M88.5253 42.7923C88.9067 42.7923 89.2164 42.6622 89.4554 42.4008C89.6938 42.1399 89.8127 41.805 89.8127 41.3955C89.8127 40.986 89.6921 40.6522 89.4509 40.3942C89.2096 40.1361 88.9011 40.0071 88.5253 40.0071C88.1494 40.0071 87.8409 40.1361 87.5997 40.3942C87.3584 40.6522 87.2378 40.986 87.2378 41.3955C87.2378 41.805 87.3567 42.1399 87.5952 42.4008C87.8341 42.6622 88.1438 42.7923 88.5253 42.7923ZM88.2812 43.6591C87.8998 43.6591 87.5559 43.5665 87.2507 43.3814C86.9444 43.1963 86.7032 42.9326 86.5265 42.5904C86.3504 42.2482 86.2617 41.8527 86.2617 41.4034C86.2617 41 86.3487 40.627 86.5226 40.2842C86.6965 39.9426 86.9416 39.666 87.2591 39.4557C87.5755 39.2453 87.9306 39.1398 88.3233 39.1398C88.6318 39.1398 88.9106 39.201 89.1603 39.3216C89.4099 39.4416 89.6079 39.6144 89.7538 39.8382V36.708H90.7215V43.5244H89.7875L89.7706 42.9438C89.4621 43.4206 88.9656 43.6591 88.2812 43.6591Z" fill="#F1644B"/>
<path fill-rule="evenodd" clip-rule="evenodd" d="M92.0832 43.5245H93.0509V39.2751H92.0832V43.5245ZM92.5629 38.2906C92.389 38.2906 92.2448 38.2334 92.1298 38.1184C92.0142 38.0034 91.957 37.8592 91.957 37.6848C91.957 37.5114 92.0142 37.3684 92.1298 37.2562C92.2448 37.1434 92.389 37.0879 92.5629 37.0879C92.7368 37.0879 92.881 37.1434 92.996 37.2562C93.1115 37.3684 93.1687 37.5114 93.1687 37.6848C93.1687 37.8592 93.1115 38.0034 92.996 38.1184C92.881 38.2334 92.7368 38.2906 92.5629 38.2906Z" fill="#F1644B"/>
<path fill-rule="evenodd" clip-rule="evenodd" d="M94.4141 39.2753H95.3397L95.3481 39.8228C95.4659 39.6034 95.6398 39.4351 95.8698 39.3173C96.0998 39.1995 96.3663 39.1406 96.6692 39.1406C97.1797 39.1406 97.5707 39.2966 97.8433 39.6079C98.1154 39.9187 98.2511 40.3664 98.2511 40.9498V43.5247H97.2835V41.1265C97.2835 40.745 97.2122 40.4617 97.0686 40.2766C96.9261 40.0915 96.7057 39.9989 96.4083 39.9989C96.083 39.9989 95.8305 40.1055 95.651 40.3187C95.4715 40.5318 95.3817 40.8297 95.3817 41.2106V43.5247H94.4141V39.2753Z" fill="#F1644B"/>
<path fill-rule="evenodd" clip-rule="evenodd" d="M101.584 42.7922C101.965 42.7922 102.275 42.662 102.514 42.4006C102.752 42.1397 102.871 41.8048 102.871 41.3953C102.871 40.9858 102.751 40.652 102.509 40.394C102.268 40.1359 101.96 40.0069 101.584 40.0069C101.208 40.0069 100.899 40.1359 100.658 40.394C100.417 40.652 100.296 40.9858 100.296 41.3953C100.296 41.8048 100.415 42.1397 100.654 42.4006C100.893 42.662 101.202 42.7922 101.584 42.7922ZM101.424 45.661C101.138 45.661 100.841 45.6279 100.532 45.5606C100.223 45.4927 99.9823 45.4119 99.8084 45.3165L99.9177 44.4246C100.103 44.5424 100.323 44.635 100.579 44.7017C100.834 44.769 101.093 44.8033 101.357 44.8033C101.862 44.8033 102.233 44.6821 102.472 44.4409C102.71 44.2002 102.829 43.8244 102.829 43.3139V42.9436C102.521 43.4205 102.024 43.6589 101.34 43.6589C100.958 43.6589 100.614 43.5663 100.309 43.3812C100.003 43.1961 99.7618 42.9324 99.5851 42.5902C99.4089 42.248 99.3203 41.8525 99.3203 41.4032C99.3203 40.9998 99.4073 40.6268 99.5812 40.284C99.7551 39.9424 100 39.6658 100.318 39.4555C100.634 39.2451 100.989 39.1396 101.382 39.1396C101.696 39.1396 101.979 39.2036 102.232 39.3293C102.484 39.4555 102.683 39.6339 102.829 39.8633L102.846 39.2743H103.78V43.2466C103.78 44.0426 103.583 44.6445 103.187 45.0512C102.791 45.4579 102.204 45.661 101.424 45.661Z" fill="#F1644B"/>
<path fill-rule="evenodd" clip-rule="evenodd" d="M106.707 42.7923L109.072 40.0912H106.8V39.2744H110.292V40.007L107.91 42.7082H110.351V43.5244H106.707V42.7923Z" fill="#F1644B"/>
<path fill-rule="evenodd" clip-rule="evenodd" d="M113.381 42.7922C113.762 42.7922 114.072 42.662 114.311 42.4006C114.549 42.1397 114.668 41.8048 114.668 41.3953C114.668 40.9858 114.548 40.652 114.306 40.394C114.065 40.1359 113.757 40.0069 113.381 40.0069C113.005 40.0069 112.696 40.1359 112.456 40.394C112.214 40.652 112.093 40.9858 112.093 41.3953C112.093 41.8048 112.213 42.1397 112.451 42.4006C112.69 42.662 112.999 42.7922 113.381 42.7922ZM113.381 43.6589C112.966 43.6589 112.587 43.5646 112.245 43.3767C111.903 43.1888 111.629 42.9206 111.425 42.5728C111.219 42.2256 111.117 41.8329 111.117 41.3953C111.117 40.9914 111.213 40.6184 111.404 40.2762C111.594 39.934 111.863 39.6591 112.211 39.4516C112.559 39.244 112.949 39.1396 113.381 39.1396C113.796 39.1396 114.175 39.2339 114.517 39.4218C114.859 39.6097 115.133 39.8762 115.337 40.2212C115.542 40.5662 115.644 40.9572 115.644 41.3953C115.644 41.8048 115.549 42.1807 115.358 42.5229C115.168 42.8651 114.898 43.14 114.55 43.347C114.203 43.5545 113.813 43.6589 113.381 43.6589Z" fill="#F1644B"/>
<path fill-rule="evenodd" clip-rule="evenodd" d="M116.738 39.2753H117.664L117.672 39.8228C117.79 39.6034 117.965 39.4351 118.195 39.3173C118.424 39.1995 118.69 39.1406 118.994 39.1406C119.504 39.1406 119.895 39.2966 120.168 39.6079C120.44 39.9187 120.576 40.3664 120.576 40.9498V43.5247H119.608V41.1265C119.608 40.745 119.536 40.4617 119.393 40.2766C119.25 40.0915 119.03 39.9989 118.733 39.9989C118.408 39.9989 118.155 40.1055 117.975 40.3187C117.796 40.5318 117.707 40.8297 117.707 41.2106V43.5247H116.738V39.2753Z" fill="#F1644B"/>
<path fill-rule="evenodd" clip-rule="evenodd" d="M124.834 40.9914C124.811 40.6436 124.707 40.3738 124.522 40.1836C124.337 39.9929 124.082 39.8975 123.757 39.8975C123.437 39.8975 123.176 39.9929 122.975 40.1836C122.772 40.3738 122.649 40.6436 122.604 40.9914H124.834ZM124.069 43.6589C123.586 43.6589 123.163 43.5702 122.797 43.3935C122.433 43.2168 122.149 42.9576 121.947 42.6155C121.746 42.2733 121.645 41.8716 121.645 41.4122C121.645 40.9796 121.733 40.5931 121.91 40.2509C122.087 39.9082 122.337 39.6378 122.663 39.4386C122.988 39.2395 123.364 39.1396 123.791 39.1396C124.177 39.1396 124.521 39.2244 124.821 39.3921C125.121 39.5604 125.356 39.805 125.524 40.1247C125.692 40.4439 125.777 40.817 125.777 41.2433C125.777 41.457 125.765 41.6169 125.742 41.7235H122.612C122.674 42.0881 122.838 42.3697 123.105 42.5695C123.371 42.768 123.721 42.8679 124.152 42.8679C124.658 42.8679 125.134 42.7579 125.583 42.5397L125.684 43.2965C125.477 43.4092 125.229 43.4979 124.943 43.5618C124.658 43.6263 124.365 43.6589 124.069 43.6589Z" fill="#F1644B"/>
</svg>
