<svg xmlns="http://www.w3.org/2000/svg">
	<symbol id="bell" viewBox="0 0 18 20">
		<path d="M11 18C11 18.5304 10.7893 19.0391 10.4142 19.4142C10.0391 19.7893 9.53043 20 9 20C8.46957 20 7.96086 19.7893 7.58579 19.4142C7.21071 19.0391 7 18.5304 7 18H11ZM9 0C9.26522 0 9.51957 0.105357 9.70711 0.292893C9.89464 0.48043 10 0.734784 10 1V2.08C12.84 2.56 15 5.03 15 8V14L18 17H0L3 14V8C3 5.03 5.16 2.56 8 2.08V1C8 0.734784 8.10536 0.48043 8.29289 0.292893C8.48043 0.105357 8.73478 0 9 0Z" />
	</symbol>
	<symbol id="activator" viewBox="0 0 20 20">
		<path d="M0 0H9V9H0V0ZM7 2H2V7H7V2ZM20 11V20H11V11H20ZM13 18H18V13H13V18ZM14 6V9H11V6H14ZM9 14H6V11H9V14Z" />
	</symbol>
	<symbol id="add" viewBox="0 0 14 14">
		<path d="M14 8H8V14H6V8H0V6H6V0H8V6H14V8Z" />
	</symbol>
	<symbol id="chatbubbles" viewBox="0 0 28 28">
		<path d="M23.5703 17.5328C23.5703 17.2922 23.6359 17.0625 23.7507 16.8656C23.7835 16.8055 23.8273 16.7508 23.8656 16.6961C24.8171 15.2742 25.375 13.5734 25.375 11.7578C25.3914 6.71562 21.1367 2.625 15.8757 2.625C11.2875 2.625 7.45933 5.74766 6.56245 9.89297C6.4312 10.5 6.36011 11.118 6.36011 11.7633C6.36011 16.8109 10.4507 21.0109 15.7117 21.0109C16.5484 21.0109 17.675 20.7594 18.2929 20.5898C18.9109 20.4203 19.5234 20.1961 19.682 20.1359C19.8406 20.0758 20.0156 20.043 20.1906 20.043C20.3875 20.043 20.5734 20.0812 20.7429 20.1523L23.8437 21.2516C23.8437 21.2516 23.9749 21.3062 24.057 21.3062C24.2976 21.3062 24.4945 21.1148 24.4945 20.8687C24.4945 20.8141 24.4671 20.7211 24.4671 20.7211L23.5703 17.5328Z" />
		<path d="M17.418 21.4648C17.2211 21.5195 16.9695 21.5797 16.6961 21.6398C16.1219 21.7602 15.3891 21.8859 14.8367 21.8859C9.57578 21.8859 5.48516 17.6859 5.48516 12.6383C5.48516 12.2773 5.52344 11.818 5.56719 11.468C5.6 11.2328 5.63828 10.9977 5.69297 10.768C5.74766 10.5219 5.81328 10.2758 5.88437 10.0352L5.44687 10.4234C3.65312 11.9875 2.625 14.2188 2.625 16.543C2.625 18.1453 3.08984 19.6875 3.98125 21.0273C4.10703 21.2188 4.17812 21.3664 4.15625 21.4648C4.13437 21.5633 3.50547 24.8555 3.50547 24.8555C3.47266 25.0141 3.53281 25.1727 3.65313 25.2766C3.73516 25.3422 3.83359 25.375 3.93203 25.375C3.98672 25.375 4.04141 25.3641 4.09063 25.3422L7.15859 24.1336C7.25703 24.0953 7.36094 24.0734 7.47031 24.0734C7.47031 24.0734 7.60156 24.0625 7.81484 24.1445C8.84844 24.5492 9.99141 24.8008 11.1344 24.8008C13.6828 24.8008 16.0781 23.7016 17.7023 21.7875C17.7023 21.7875 17.8773 21.5469 18.0797 21.2625C17.8773 21.3336 17.6477 21.4047 17.418 21.4648Z" />
	</symbol>
	<symbol id="cog" viewBox="0 0 20 20">
		<path d="M17.43 10.98C17.47 10.66 17.5 10.34 17.5 10C17.5 9.66 17.47 9.34 17.43 9.02L19.54 7.37C19.73 7.22 19.78 6.95 19.66 6.73L17.66 3.27C17.54 3.05 17.27 2.97 17.05 3.05L14.56 4.05C14.04 3.65 13.48 3.32 12.87 3.07L12.49 0.42C12.46 0.18 12.25 0 12 0H8.00002C7.75002 0 7.54002 0.18 7.51002 0.42L7.13002 3.07C6.52002 3.32 5.96002 3.66 5.44002 4.05L2.95002 3.05C2.72002 2.96 2.46002 3.05 2.34002 3.27L0.340022 6.73C0.210022 6.95 0.270023 7.22 0.460023 7.37L2.57002 9.02C2.53002 9.34 2.50002 9.67 2.50002 10C2.50002 10.33 2.53002 10.66 2.57002 10.98L0.460023 12.63C0.270023 12.78 0.220022 13.05 0.340022 13.27L2.34002 16.73C2.46002 16.95 2.73002 17.03 2.95002 16.95L5.44002 15.95C5.96002 16.35 6.52002 16.68 7.13002 16.93L7.51002 19.58C7.54002 19.82 7.75002 20 8.00002 20H12C12.25 20 12.46 19.82 12.49 19.58L12.87 16.93C13.48 16.68 14.04 16.34 14.56 15.95L17.05 16.95C17.28 17.04 17.54 16.95 17.66 16.73L19.66 13.27C19.78 13.05 19.73 12.78 19.54 12.63L17.43 10.98ZM10 13.5C8.07002 13.5 6.50002 11.93 6.50002 10C6.50002 8.07 8.07002 6.5 10 6.5C11.93 6.5 13.5 8.07 13.5 10C13.5 11.93 11.93 13.5 10 13.5Z" />
	</symbol>
	<symbol id="expand_arrow" viewBox="0 0 12 8">
		<path d="M1.41 -7.62939e-08L6 4.59L10.59 -7.62939e-08L12 1.42L6 7.42L0 1.42L1.41 -7.62939e-08Z" />
	</symbol>
	<symbol id="search" viewBox="0 0 18 18">
		<path d="M6.5 0C8.22391 0 9.87721 0.684819 11.0962 1.90381C12.3152 3.12279 13 4.77609 13 6.5C13 8.11 12.41 9.59 11.44 10.73L11.71 11H12.5L17.5 16L16 17.5L11 12.5V11.71L10.73 11.44C9.59 12.41 8.11 13 6.5 13C4.77609 13 3.12279 12.3152 1.90381 11.0962C0.684819 9.87721 0 8.22391 0 6.5C0 4.77609 0.684819 3.12279 1.90381 1.90381C3.12279 0.684819 4.77609 0 6.5 0ZM6.5 2C4 2 2 4 2 6.5C2 9 4 11 6.5 11C9 11 11 9 11 6.5C11 4 9 2 6.5 2Z" />
	</symbol>
  <symbol id="solutions" viewBox="0 0 21 21">
    <path d="M2 0C0.89 0 0 0.89 0 2V13C0 14.11 0.89 15 2 15C3.33 15 6 15 6 15C6 15 6 17.67 6 19C6 20.11 6.89 21 8 21H19C20.11 21 21 20.11 21 19V8C21 6.89 20.11 6 19 6C17.67 6 15 6 15 6C15 6 15 3.33 15 2C15 0.89 14.11 0 13 0H2ZM2 2H13C13 3.33 13 6 13 6H8C6.89 6 6 6.89 6 8V13C6 13 3.33 13 2 13V2ZM8 8H13V13H8V8ZM15 8C15 8 17.67 8 19 8V19H8C8 17.67 8 15 8 15H13C14.11 15 15 14.11 15 13V8Z" />
  </symbol>
  <symbol id="sort" viewBox="0 0 21 17">
    <path d="M8.5 9V7H16.5V9H8.5ZM8.5 15V13H12.5V15H8.5ZM8.5 3V1H20.5V3H8.5ZM4.5 13H7L3.5 16.5L0 13H2.5V0H4.5V13Z"/>
  </symbol>
  <symbol id="grid" viewBox="0 0 16 16">
    <path fill-rule="evenodd" clip-rule="evenodd" d="M0 4H4V0H0V4ZM6 16H10V12H6V16ZM0 16H4V12H0V16ZM0 10H4V6H0V10ZM6 10H10V6H6V10ZM12 0V4H16V0H12ZM6 4H10V0H6V4ZM12 10H16V6H12V10ZM12 16H16V12H12V16Z" />
  </symbol>
  <symbol id="star" viewBox="0 0 20 19">
    <path d="M10.2548 14.5523L10 14.4015L9.74522 14.5523L4.57703 17.6129L5.9366 11.8597L6.0069 11.5622L5.77417 11.364L1.23751 7.5008L7.23215 6.99361L7.53015 6.9684L7.6489 6.69391L10 1.25928L12.3511 6.69391L12.4698 6.9684L12.7678 6.99361L18.761 7.50067L14.2162 11.3637L13.9827 11.5622L14.0536 11.8603L15.421 17.6118L10.2548 14.5523Z"/>
  </symbol>
  <symbol id="teams" viewBox="0 0 22 14">
    <path d="M15 8C14.71 8 14.38 8 14.03 8.05C15.19 8.89 16 10 16 11.5V14H22V11.5C22 9.17 17.33 8 15 8ZM7 8C4.67 8 0 9.17 0 11.5V14H14V11.5C14 9.17 9.33 8 7 8ZM7 6C7.79565 6 8.55871 5.68393 9.12132 5.12132C9.68393 4.55871 10 3.79565 10 3C10 2.20435 9.68393 1.44129 9.12132 0.87868C8.55871 0.316071 7.79565 0 7 0C6.20435 0 5.44129 0.316071 4.87868 0.87868C4.31607 1.44129 4 2.20435 4 3C4 3.79565 4.31607 4.55871 4.87868 5.12132C5.44129 5.68393 6.20435 6 7 6ZM15 6C15.7956 6 16.5587 5.68393 17.1213 5.12132C17.6839 4.55871 18 3.79565 18 3C18 2.20435 17.6839 1.44129 17.1213 0.87868C16.5587 0.316071 15.7956 0 15 0C14.2044 0 13.4413 0.316071 12.8787 0.87868C12.3161 1.44129 12 2.20435 12 3C12 3.79565 12.3161 4.55871 12.8787 5.12132C13.4413 5.68393 14.2044 6 15 6Z"/>
  </symbol>
  <symbol id="dots" viewBox="0 0 16 4">
    <path d="M4 2C4 2.53043 3.78929 3.03914 3.41421 3.41421C3.03914 3.78929 2.53043 4 2 4C1.46957 4 0.960859 3.78929 0.585787 3.41421C0.210714 3.03914 -1.10609e-07 2.53043 -8.74228e-08 2C-6.42368e-08 1.46957 0.210714 0.960859 0.585787 0.585786C0.960859 0.210713 1.46957 -6.35145e-07 2 -6.11959e-07C2.53043 -5.88773e-07 3.03914 0.210714 3.41421 0.585786C3.78929 0.960859 4 1.46957 4 2ZM10 2C10 2.53043 9.78929 3.03914 9.41421 3.41421C9.03914 3.78929 8.53043 4 8 4C7.46957 4 6.96086 3.78929 6.58579 3.41421C6.21071 3.03914 6 2.53043 6 2C6 1.46957 6.21071 0.960859 6.58579 0.585786C6.96086 0.210714 7.46957 -3.72877e-07 8 -3.49691e-07C8.53043 -3.26505e-07 9.03914 0.210714 9.41421 0.585787C9.78929 0.960859 10 1.46957 10 2ZM16 2C16 2.53043 15.7893 3.03914 15.4142 3.41421C15.0391 3.78929 14.5304 4 14 4C13.4696 4 12.9609 3.78929 12.5858 3.41421C12.2107 3.03914 12 2.53043 12 2C12 1.46957 12.2107 0.960859 12.5858 0.585787C12.9609 0.210714 13.4696 -1.10609e-07 14 -8.74228e-08C14.5304 -6.42368e-08 15.0391 0.210714 15.4142 0.585787C15.7893 0.96086 16 1.46957 16 2Z" />
  </symbol>
  <symbol id="hamburger" viewBox="0 0 18 12">
    <path d="M0 0H18V2H0V0ZM0 5H18V7H0V5ZM0 10H18V12H0V10Z" />
  </symbol>
  <symbol id="user" viewBox="0 0 16 16">
    <path d="M8 0C9.06087 0 10.0783 0.421427 10.8284 1.17157C11.5786 1.92172 12 2.93913 12 4C12 5.06087 11.5786 6.07828 10.8284 6.82843C10.0783 7.57857 9.06087 8 8 8C6.93913 8 5.92172 7.57857 5.17157 6.82843C4.42143 6.07828 4 5.06087 4 4C4 2.93913 4.42143 1.92172 5.17157 1.17157C5.92172 0.421427 6.93913 0 8 0ZM8 10C12.42 10 16 11.79 16 14V16H0V14C0 11.79 3.58 10 8 10Z"/>
  </symbol>
  <symbol id="progress_arrow" viewBox="-3 0 9 15">
    <line x1="-3" x2="0" y1="3" y2="3" stroke="#5F2A60" />
    <line x1="-3" x2="0" y1="7.5" y2="7.5" stroke="#5F2A60" />
    <path d="M8 6.20201C8.66667 5.81711 8.66667 4.85486 8 4.46996L2.75 1.43887C1.75 0.861521 0.5 1.58321 0.5 2.73791L0.5 7.93406C0.5 9.08876 1.75 9.81045 2.75 9.2331L8 6.20201Z" fill="#FAFAFA" stroke="#F2644C"/>
  </symbol>
</svg>
