<svg xmlns="http://www.w3.org/2000/svg" viewBox="0 0 461.37 356">
  <title>key-point-graphic-1</title>
  <g id="Layer_1" data-name="Layer 1">
    <g>
      <path d="M233.06,6.57S267.5,30.88,276.43,61s7.74,78.36,7.74,78.36,13.06,4.76,13.08,10.72,6,35.73,4.78,44.07-22.53,37.7-22.53,37.7l-81.45-78.2S187,123.88,198.06,87s23.5-60.14,23.5-60.14Z" fill="#fff"/>
      <path d="M326.27,275.62c0,35.65-28.68,64.54-64,64.54H64c-35.37,0-64-28.89-64-64.54a64.39,64.39,0,0,1,54-63.73A40.87,40.87,0,0,1,94,164a40.17,40.17,0,0,1,26.23,9.7C132.8,145.12,148.94,119,194.27,119c55,0,81,42.71,81,87.78,0,1.88-.07,3.75-.2,5.59a64.44,64.44,0,0,1,51.19,63.23" fill="#fff" fill-rule="evenodd"/>
      <path d="M229.05,294.2a45.88,45.88,0,0,1,36.45-45c-.09-1.31-.14-2.65-.14-4,0-32.09,18.54-62.5,57.67-62.5,32.28,0,43.77,18.59,52.75,39a28.61,28.61,0,0,1,18.68-6.9,29.1,29.1,0,0,1,28.47,34.08,46,46,0,0,1-7.17,91.33H274.65a45.78,45.78,0,0,1-45.6-46" fill="#fff" fill-rule="evenodd"/>
      <path d="M289.93,132.41A164.5,164.5,0,0,0,242.78,1.59a5.8,5.8,0,0,0-8,0,164.44,164.44,0,0,0-47.15,130.83,69.68,69.68,0,0,0,.6,95.56c3,3.2,10.8,1.73,9.55-5.32a63.68,63.68,0,0,1-1.46-10.8,42,42,0,0,1,7.6-24.2,5.76,5.76,0,0,0,2.71.71h64.3a5.76,5.76,0,0,0,2.71-.71,42,42,0,0,1,7.6,24.2c0,3.53-.92,7.05-1.47,10.8-1.14,7.81,7,8.08,9.55,5.32a69.68,69.68,0,0,0,.6-95.56M238.76,13.74a150.91,150.91,0,0,1,24.74,36H214.07a148.19,148.19,0,0,1,24.69-36M185.58,204.2a58.63,58.63,0,0,1,4.23-56.27c.05.43,6,23.06,8.25,28.87a52.7,52.7,0,0,0-12.48,27.4M267.19,177H210.33A153.14,153.14,0,0,1,209,61h59.47a153.15,153.15,0,0,1-1.3,116m12.32-.22c3.15-8.09,8.19-28.54,8.25-28.87a57.82,57.82,0,0,1,9.5,32A58.79,58.79,0,0,1,292,204.2a53.58,53.58,0,0,0-12.48-27.4" fill="#fc3f2b"/>
      <path d="M215.91,197.8a5.64,5.64,0,0,0-5.64,5.64v28.38a5.64,5.64,0,1,0,11.29,0V203.45a5.64,5.64,0,0,0-5.64-5.64" fill="#440a44"/>
      <path d="M238.76,197.8a5.64,5.64,0,0,0-4,1.68l-.05.05a5.69,5.69,0,0,0-1.41,2.5,6.9,6.9,0,0,0-.22,1.52v56.7a5.39,5.39,0,0,0,.16,1.3,5.63,5.63,0,0,0,11,0,5.35,5.35,0,0,0,.16-1.3V203.45a4.75,4.75,0,0,0-.22-1.52,5.49,5.49,0,0,0-5.37-4.12" fill="#440a44"/>
      <path d="M261.6,197.8a5.64,5.64,0,0,0-5.64,5.64v28.38a5.64,5.64,0,1,0,11.29,0V203.45a5.57,5.57,0,0,0-5.64-5.64" fill="#440a44"/>
      <ellipse cx="238.79" cy="287.05" rx="45.39" ry="10.36" fill="none" stroke="#440a44" stroke-miterlimit="10" stroke-width="8.32"/>
      <ellipse cx="238.79" cy="287.05" rx="93" ry="22.98" fill="none" stroke="#440a44" stroke-miterlimit="10" stroke-width="8.32"/>
    </g>
  </g>
</svg>
