<svg width="10" height="25" viewBox="0 0 25 25" fill="none" xmlns="http://www.w3.org/2000/svg">
<path fill-rule="evenodd" clip-rule="evenodd" d="M18.0931 28.9405C18.6087 27.6171 19.4344 24.2681 19.4434 24.2154C20.4554 25.7519 20.9979 27.5548 20.9979 29.4464C20.9979 30.8416 20.6955 32.1913 20.1362 33.426C19.8961 31.7655 19.1943 30.2195 18.0931 28.9405ZM16.077 28.9758H6.76873C4.15683 22.8477 4.18376 15.9993 6.555 9.98565H16.2902C18.6614 15.9993 18.6883 22.8477 16.077 28.9758ZM2.71793 33.426C2.14966 32.1913 1.85627 30.8416 1.85627 29.4464C1.85627 27.5638 2.39817 25.7608 3.41073 24.2154C3.41971 24.286 4.38795 27.9902 4.76044 28.9405C3.65027 30.2195 2.94849 31.7655 2.71793 33.426ZM11.4226 2.24923C13.0747 4.02584 14.4249 6.0246 15.4728 8.14733H7.38132C8.42024 6.01562 9.77051 4.02584 11.4226 2.24923ZM19.7985 21.6747C20.5003 13.894 17.7824 5.96233 12.08 0.260012C11.7334 -0.0866707 11.1208 -0.0866707 10.7741 0.260012C5.07178 5.96233 2.35385 13.885 3.05563 21.6747C1.0838 23.798 0 26.5333 0 29.4464C0 32.3865 1.11915 35.1841 3.15324 37.3164C3.65027 37.8409 4.92088 37.6008 4.71668 36.4457C4.6101 35.8421 4.47659 35.2554 4.47659 34.6787C4.47659 33.2398 4.91134 31.8715 5.72027 30.7171C5.85322 30.7877 6.00412 30.8326 6.164 30.8326H16.6896C16.85 30.8326 17.0009 30.7877 17.1339 30.7171C17.9422 31.8715 18.3776 33.2398 18.3776 34.6787C18.3776 35.2554 18.2261 35.8332 18.1375 36.4457C17.9512 37.7253 19.2835 37.7696 19.7009 37.3164C21.726 35.1763 22.8541 32.3865 22.8541 29.4464C22.8452 26.5333 21.7703 23.789 19.7985 21.6747Z" fill="#F1644B"/>
<path fill-rule="evenodd" clip-rule="evenodd" d="M7.6832 32.377C7.16823 32.377 6.75928 32.7943 6.75928 33.3009V37.9463C6.75928 38.4619 7.1772 38.8702 7.6832 38.8702C8.18977 38.8702 8.60713 38.4523 8.60713 37.9463V33.3009C8.60713 32.7859 8.18977 32.377 7.6832 32.377Z" fill="white"/>
<path fill-rule="evenodd" clip-rule="evenodd" d="M11.4226 32.377C11.1652 32.377 10.934 32.483 10.7657 32.6524L10.7568 32.6614C10.6502 32.768 10.57 32.9099 10.5256 33.0698C10.5083 33.1494 10.4897 33.2302 10.4897 33.3188V42.6007C10.4897 42.672 10.4987 42.7432 10.5167 42.8133C10.6148 43.2223 10.9784 43.5241 11.4137 43.5241C11.849 43.5241 12.2131 43.2223 12.3107 42.8133C12.3286 42.7432 12.3376 42.672 12.3376 42.6007V33.3009C12.3376 33.2122 12.3286 33.1326 12.3023 33.0518C12.2046 32.6614 11.849 32.377 11.4226 32.377Z" fill="white"/>
<path fill-rule="evenodd" clip-rule="evenodd" d="M15.1622 32.377C14.6472 32.377 14.2383 32.7943 14.2383 33.3009V37.9463C14.2383 38.4619 14.6562 38.8702 15.1622 38.8702C15.6688 38.8702 16.0856 38.4523 16.0856 37.9463V33.3009C16.0951 32.7859 15.6772 32.377 15.1622 32.377Z" fill="white"/>
</svg>
